<svg width="25" height="24" viewBox="0 0 25 24" fill="none" xmlns="http://www.w3.org/2000/svg">
<path d="M2.80005 6C2.80005 4.11438 2.80005 3.17157 3.38584 2.58579C3.97162 2 4.91443 2 6.80005 2C8.68567 2 9.62848 2 10.2143 2.58579C10.8 3.17157 10.8 4.11438 10.8 6V8C10.8 9.88562 10.8 10.8284 10.2143 11.4142C9.62848 12 8.68567 12 6.80005 12C4.91443 12 3.97162 12 3.38584 11.4142C2.80005 10.8284 2.80005 9.88562 2.80005 8V6Z" fill="#0D111A" stroke="#0D111A" stroke-width="1.25"/>
<path d="M2.80005 19C2.80005 18.0681 2.80005 17.6022 2.95229 17.2346C3.15528 16.7446 3.54463 16.3552 4.03468 16.1522C4.40223 16 4.86817 16 5.80005 16H7.80005C8.73193 16 9.19787 16 9.56542 16.1522C10.0555 16.3552 10.4448 16.7446 10.6478 17.2346C10.8 17.6022 10.8 18.0681 10.8 19C10.8 19.9319 10.8 20.3978 10.6478 20.7654C10.4448 21.2554 10.0555 21.6448 9.56542 21.8478C9.19787 22 8.73193 22 7.80005 22H5.80005C4.86817 22 4.40223 22 4.03468 21.8478C3.54463 21.6448 3.15528 21.2554 2.95229 20.7654C2.80005 20.3978 2.80005 19.9319 2.80005 19Z" fill="#0D111A" stroke="#0D111A" stroke-width="1.25"/>
<path d="M14.8 16C14.8 14.1144 14.8 13.1716 15.3858 12.5858C15.9716 12 16.9144 12 18.8 12C20.6856 12 21.6284 12 22.2142 12.5858C22.8 13.1716 22.8 14.1144 22.8 16V18C22.8 19.8856 22.8 20.8284 22.2142 21.4142C21.6284 22 20.6856 22 18.8 22C16.9144 22 15.9716 22 15.3858 21.4142C14.8 20.8284 14.8 19.8856 14.8 18V16Z" fill="#0D111A" stroke="#0D111A" stroke-width="1.25"/>
<path d="M14.8 5C14.8 4.06812 14.8 3.60218 14.9522 3.23463C15.1552 2.74458 15.5446 2.35523 16.0346 2.15224C16.4022 2 16.8681 2 17.8 2H19.8C20.7319 2 21.1978 2 21.5654 2.15224C22.0554 2.35523 22.4448 2.74458 22.6478 3.23463C22.8 3.60218 22.8 4.06812 22.8 5C22.8 5.93188 22.8 6.39782 22.6478 6.76537C22.4448 7.25542 22.0554 7.64477 21.5654 7.84776C21.1978 8 20.7319 8 19.8 8H17.8C16.8681 8 16.4022 8 16.0346 7.84776C15.5446 7.64477 15.1552 7.25542 14.9522 6.76537C14.8 6.39782 14.8 5.93188 14.8 5Z" fill="#0D111A" stroke="#0D111A" stroke-width="1.25"/>
</svg>
